<svg viewBox="0 0 512 208" xmlns="http://www.w3.org/2000/svg">
  <defs>
    <linearGradient id="bg" x1="0%" y1="0%" x2="100%" y2="60%">
      <stop offset="0%" stop-color="#060d16"/>
      <stop offset="45%" stop-color="#0c2b3d"/>
      <stop offset="100%" stop-color="#12c4d6"/>
    </linearGradient>
    <linearGradient id="kgrad" x1="0%" y1="0%" x2="100%" y2="100%">
      <stop offset="0%" stop-color="#7fe3ff"/>
      <stop offset="55%" stop-color="#2196e0"/>
      <stop offset="100%" stop-color="#0b4fa0"/>
    </linearGradient>
    <linearGradient id="swoosh" x1="0%" y1="0%" x2="100%" y2="0%">
      <stop offset="0%" stop-color="#ff8a1e"/>
      <stop offset="100%" stop-color="#ffd08a"/>
    </linearGradient>
  </defs>

  <rect x="0" y="0" width="512" height="208" rx="20" fill="url(#bg)"/>

  <g fill="#8fe0f5" opacity="0.85">
    <rect x="30" y="34" width="7" height="7"/>
    <rect x="42" y="34" width="7" height="7"/>
    <rect x="30" y="46" width="7" height="7"/>
    <rect x="54" y="46" width="5" height="5"/>
    <rect x="42" y="58" width="5" height="5"/>
    <rect x="66" y="34" width="4" height="4"/>
  </g>

  <path d="M 28 158 C 70 175, 120 178, 168 150 C 130 172, 78 172, 28 158 Z" fill="url(#swoosh)"/>
  <path d="M 20 148 C 66 168, 122 168, 172 138" fill="none" stroke="#ffffff" stroke-width="3" stroke-linecap="round" opacity="0.85"/>

  <g fill="url(#kgrad)">
    <path d="M 52 40 L 76 40 L 76 168 L 52 168 Z"/>
    <path d="M 76 100 L 150 40 L 122 40 L 76 78 Z"/>
    <path d="M 76 112 L 156 168 L 122 168 L 76 138 Z"/>
  </g>

  <text x="180" y="134" font-family="Segoe UI, Arial, sans-serif" font-size="76" font-weight="700" letter-spacing="-1.5" fill="#ffffff">anvtech</text>
</svg>
